<?xml version="1.0" encoding="utf-8"?>
<!-- Generator: Adobe Illustrator 24.0.1, SVG Export Plug-In . SVG Version: 6.00 Build 0)  -->
<svg version="1.1" id="Capa_1" xmlns="http://www.w3.org/2000/svg" xmlns:xlink="http://www.w3.org/1999/xlink" x="0px" y="0px"
	 viewBox="0 0 731.89 595.28" style="enable-background:new 0 0 731.89 595.28;" xml:space="preserve">
<style type="text/css">
	.st0{fill:#742119;}
	.st1{font-family:'MyriadPro-Regular';}
	.st2{font-size:87.2041px;}
</style>
<g>
	<g>
		<g>
			<path class="st0" d="M392.12,339.1c0,0,58.19-28.09,76.15-36.89c17.95-8.79,19.83-21.13,19.83-21.13s15.91-56.38,16.95-60.05
				c1.04-3.67,3.62-12.84-8.73-16.32c-12.36-3.49-13.25,9.13-13.25,9.13s-6.91,25.44-10.66,38.73c6.88,5.75,6.89,10.93,4.49,17.33
				c-2.41,6.46-11.92,11.06-11.92,11.06l-18.18,9.3c0,0-6.16,2.53-8.51-1.04c-3.08-4.68,3.28-6.43,3.28-6.43l22.22-11.15
				c0,0,8.6-4.62,5.52-11.24c-4.39-9.41-13.99-4.49-13.99-4.49s-6,2.01-28.12,11.68c0,0-45.5,15.16-43.64,34.07
				C385.4,320.19,392.12,339.1,392.12,339.1z"/>
			<path class="st0" d="M367.96,301.68c1.87-18.91-43.64-34.07-43.64-34.07c-22.11-9.67-28.11-11.68-28.11-11.68
				s-9.61-4.92-13.99,4.49c-3.08,6.62,5.52,11.24,5.52,11.24l22.22,11.15c0,0,6.36,1.75,3.28,6.43c-2.34,3.57-8.51,1.04-8.51,1.04
				l-18.17-9.3c0,0-9.51-4.6-11.92-11.06c-2.4-6.41-2.39-11.58,4.49-17.33c-3.75-13.29-10.66-38.73-10.66-38.73
				s-0.89-12.62-13.25-9.13c-12.35,3.49-9.77,12.65-8.73,16.32c1.04,3.67,16.95,60.05,16.95,60.05s1.88,12.34,19.83,21.13
				c17.96,8.79,76.15,36.89,76.15,36.89S366.13,320.19,367.96,301.68z"/>
		</g>
		<path class="st0" d="M395.69,237.94v-15.21c0,0,0.52-18.5-21.16-18.5c-20.75,0-20.04,18.05-20.04,18.05l-0.04,14.8
			c0,13.59-11.56,12.25-11.56,12.25h-14.24c-12.72,0-10.49-13.12-10.49-13.12V191.9h-10.46c0,0-11.07-0.06,3.28-14.4l45.86-49.66
			c0,0,7.51-9.9,16.72-9.9c7.85,0,11.26,5.12,16.72,11.26l12.54,14.91l-0.5-15.22c0,0,0.32-8.56,13.07-8.56
			c0,0,13.41-0.29,13.41,9.53l-0.52,33.5l13.38,14.47c12.98,12.98,1.85,13.3,0.83,13.3c-1.02,0-11.67,0-11.67,0v47.46
			c0,11.43-10.28,10.75-10.28,10.75l-15.1,0.01C405.44,249.35,395.69,250.88,395.69,237.94z"/>
	</g>
</g>
<text transform="matrix(1 0 0 1 176.7135 414.8284)" class="st0 st1 st2">CondoSism</text>
</svg>
